<svg width="14" height="16" viewBox="0 0 14 16" fill="none" xmlns="http://www.w3.org/2000/svg">
<path fill-rule="evenodd" clip-rule="evenodd" d="M0 1.33333C0 0.597333 0.593306 0 1.32434 0H5.48657C5.6371 0 5.78147 0.0602039 5.88791 0.167368C5.99435 0.274531 6.05415 0.419876 6.05415 0.571429C6.05415 0.722981 5.99435 0.868326 5.88791 0.97549C5.78147 1.08265 5.6371 1.14286 5.48657 1.14286H1.32434C1.27417 1.14286 1.22605 1.16293 1.19057 1.19865C1.15508 1.23437 1.13515 1.28282 1.13515 1.33333V14.6667C1.13515 14.7718 1.21991 14.8571 1.32434 14.8571H5.48657C5.6371 14.8571 5.78147 14.9173 5.88791 15.0245C5.99435 15.1317 6.05415 15.277 6.05415 15.4286C6.05415 15.5801 5.99435 15.7255 5.88791 15.8326C5.78147 15.9398 5.6371 16 5.48657 16H1.32434C0.973107 16 0.636254 15.8595 0.387892 15.6095C0.139529 15.3594 0 15.0203 0 14.6667V1.33333ZM12.1128 8.57143L9.6155 11.2259C9.51603 11.3366 9.46351 11.482 9.46916 11.6311C9.4748 11.7802 9.53817 11.9212 9.64572 12.0239C9.75327 12.1266 9.89645 12.1829 10.0447 12.1807C10.1929 12.1785 10.3344 12.118 10.4389 12.0122L13.8443 8.39314C13.9443 8.28699 14 8.14628 14 8C14 7.85372 13.9443 7.71301 13.8443 7.60686L10.4389 3.98781C10.3344 3.88197 10.1929 3.82148 10.0447 3.81929C9.89645 3.81709 9.75327 3.87336 9.64572 3.97606C9.53817 4.07877 9.4748 4.21975 9.46916 4.36888C9.46351 4.51801 9.51603 4.66345 9.6155 4.7741L12.1128 7.42857H5.86495C5.71442 7.42857 5.57006 7.48878 5.46362 7.59594C5.35718 7.7031 5.29738 7.84845 5.29738 8C5.29738 8.15155 5.35718 8.2969 5.46362 8.40406C5.57006 8.51122 5.71442 8.57143 5.86495 8.57143H12.1128Z" fill="#E33E3E"/>
</svg>
